<svg width="512" height="512" xmlns="http://www.w3.org/2000/svg" xmlns:xlink="http://www.w3.org/1999/xlink" xml:space="preserve" overflow="hidden"><g transform="translate(-384 -104)"><path d="M623.5 112.586C586.654 116.256 559.899 123.492 531.422 137.491 506.27 149.856 484.553 165.367 464.96 184.96 426.649 223.27 402.737 271.253 394.328 326.695 392.069 341.587 392.069 378.413 394.328 393.305 401.343 439.552 419.717 481.725 448.047 516.605 478.488 554.083 521.991 583.114 569 597.318 593.224 604.638 612.824 607.429 640 607.429 667.176 607.429 686.776 604.638 711 597.318 790.889 573.178 853.178 510.889 877.318 431 884.641 406.766 887.43 387.167 887.424 360 887.417 332.053 884.074 309.64 876.33 285.634 846.713 193.818 769.142 128.262 673.804 114.476 663.698 113.015 631.385 111.801 623.5 112.586M622.362 138.089C616.237 138.532 607.237 139.591 602.362 140.443 597.488 141.296 593.162 141.995 592.75 141.997 592.338 141.999 592 142.45 592 143 592 143.55 592.495 144 593.099 144 593.704 144 601.579 147.568 610.601 151.93 641.944 167.084 667.911 183.937 693 205.409 696.575 208.469 699.842 210.979 700.259 210.986 701.922 211.016 714.26 192.912 718.989 183.5 724.399 172.734 730.228 156.896 729.157 155.871 727.749 154.523 708.522 147.901 697.793 145.068 683.005 141.164 671.518 139.273 655 138.025 640.225 136.908 638.683 136.912 622.362 138.089M538.845 161.823C504.174 179.269 475.561 204.882 453.192 238.5 447.013 247.786 432.517 274.851 433.302 275.636 433.493 275.827 442.391 273.782 453.075 271.091 497.376 259.935 534.257 255.345 598.5 252.992 625.498 252.003 631.782 251.131 645.824 246.429 657.915 242.381 680 230.586 680 228.177 680 227.014 664.855 214.893 651.258 205.173 624.677 186.173 592.547 169.379 562.345 158.699L552.191 155.108 538.845 161.823M749.084 176.916C743.354 192.935 734.445 208.602 722.963 222.851L717.913 229.118 726.27 238.309C730.867 243.364 737.908 251.435 741.917 256.245 746.285 261.485 749.667 264.717 750.354 264.31 751.249 263.779 810.302 220.653 811.885 219.374 813.564 218.018 791.529 195.55 779 185.841 771.222 179.814 753.829 168 752.734 168 752.481 168 750.839 172.012 749.084 176.916M796.5 261.17C780.55 272.738 766.683 282.782 765.685 283.491 763.994 284.692 764.417 285.715 771.907 298.525 776.327 306.085 781.644 315.602 783.722 319.673 786.385 324.891 787.942 326.931 789 326.589 789.825 326.322 795.675 324.306 802 322.11 816.851 316.954 825.188 315.281 843.131 313.857L857.763 312.697 854.961 302.017C853.42 296.143 850.491 286.874 848.453 281.418 842.245 264.803 829.096 239.914 826.608 240.069 825.999 240.108 812.45 249.603 796.5 261.17M691.5 251.655C682.079 258.155 664.763 266.72 653.5 270.45 635.344 276.463 616.001 278.988 588 279.002 556.679 279.017 511.667 284.107 477.237 291.528 455.881 296.131 425.206 305.212 423.822 307.342 422.309 309.671 418.937 331.399 417.985 344.958 414.879 389.197 425.722 435.184 448.236 473.25 450.431 476.963 452.624 480 453.107 480 454.301 480 728.415 281.124 728.828 279.958 729.379 278.402 701.912 245.899 700.188 246.067 699.81 246.104 695.9 248.619 691.5 251.655M606.5 399.563C531.7 454.308 469.854 499.479 469.065 499.943 466.909 501.21 469.477 504.571 482.495 517.516 500.852 535.772 520.801 549.766 545 561.366 567.104 571.961 592.936 579.408 615.741 581.759L623.981 582.609 631.995 571.446C649.847 546.582 670.516 508.451 684.514 474.559 688.135 465.791 694.9 447.341 699.547 433.559 709.004 405.513 715.507 391.502 725.781 377.044 733.584 366.062 748.564 350.604 758.25 343.538 761.962 340.83 765 338.177 765 337.642 765 335.406 744.469 299.989 743.186 300.013 742.809 300.02 681.3 344.817 606.5 399.563M837 338.075C824.043 339.504 800.227 346.205 798.569 348.889 798.325 349.284 800.585 355.988 803.591 363.788 810.581 381.92 817.032 404.421 820.864 424.041 824.163 440.929 826.997 463.199 826.999 472.25 826.999 475.413 827.337 477.999 827.75 477.997 828.782 477.992 837.051 463.353 841.985 452.796 850.93 433.657 857.475 411.271 860.62 389.058 862.185 378.01 863.106 339.772 861.838 338.505 860.758 337.425 845.318 337.158 837 338.075M769.945 367.319C750.29 383.542 738.69 401.575 727.693 433 708.011 489.245 687.85 532.105 663.346 569.8 659.306 576.015 656 581.303 656 581.55 656 582.461 664.529 581.958 674.872 580.438 720.63 573.711 764.542 551.46 797 518.552L804.5 510.948 804.437 491.724C804.316 454.338 797.023 415.876 782.3 374.97 779.733 367.837 777.352 362 777.011 362 776.669 362 773.489 364.394 769.945 367.319" fill="#FFFF97" fill-rule="evenodd"/></g></svg>