<svg width="596" height="596" xmlns="http://www.w3.org/2000/svg" xmlns:xlink="http://www.w3.org/1999/xlink" xml:space="preserve" overflow="hidden"><g transform="translate(-342 -62)"><path d="M614.391 63.717C551.702 74.3298 502.301 120.342 486.679 182.666 483.787 194.199 483.513 197.238 483.474 217.984 483.443 235.446 483.909 242.884 485.493 250.22 498.968 312.632 545.65 359.608 607.988 373.481 619.248 375.987 648.947 376.951 661.12 375.206 728.011 365.617 780.272 316.766 794.447 250.578 797.443 236.591 797.443 201.706 794.447 187.719 786.801 152.018 768.141 121.018 740.538 98.1593 717.94 79.4435 693.816 68.4431 665.027 63.7263 652.425 61.6613 626.561 61.6566 614.391 63.717M572.484 413.142C472.423 428.476 393.949 508.26 379.907 608.937 378.905 616.118 378.088 627.346 378.091 633.885 378.095 647.33 379.721 651.536 386.515 655.678 390.269 657.967 392.896 657.992 640 657.992 887.104 657.992 889.731 657.967 893.485 655.678 900.279 651.536 901.905 647.33 901.909 633.885 901.918 611.43 896.133 581.601 887.369 558.909 857.07 480.454 788.336 425.111 706.203 413.037 689.023 410.512 589.136 410.59 572.484 413.142" fill="#FFFF97" fill-rule="evenodd"/></g></svg>