<svg xmlns="http://www.w3.org/2000/svg" width="512" height="512" viewBox="0 0 512 512" version="1.1"><path d="" stroke="none" fill="#080404" fill-rule="evenodd"/><path d="M 233 35.016 C 218.856 36.485, 198.273 40.954, 184 45.655 C 160.076 53.535, 126.682 71.646, 114.532 83.330 C 107.084 90.492, 106.511 99.806, 113.100 106.603 C 120.322 114.054, 127.695 113.630, 139.477 105.085 C 174.403 79.755, 213.426 67, 256 67 C 299.151 67, 334.876 78.997, 374.900 106.929 C 382.992 112.576, 393.830 110.559, 398.534 102.532 C 401.771 97.008, 401.844 90.555, 398.722 85.898 C 393.946 78.774, 370.673 63.714, 350.128 54.451 C 330.635 45.663, 310.946 39.819, 289.500 36.455 C 277.655 34.597, 245.032 33.766, 233 35.016 M 243.500 114.701 C 218.528 116.980, 193.657 125.744, 172.574 139.693 C 158.979 148.689, 140.689 166.979, 131.693 180.574 C 95.616 235.100, 98.282 305.202, 138.378 356.348 C 166.862 392.683, 209.395 413.264, 256 413.264 C 288.999 413.264, 319.116 403.448, 344.782 384.329 C 399.268 343.740, 419.816 272.999, 395.481 209.783 C 388.433 191.473, 375.598 171.567, 363.277 159.836 C 358.376 155.169, 356.510 154.049, 352.676 153.474 C 343.172 152.049, 334.047 159.888, 334.023 169.500 C 334.009 174.716, 335.448 177.304, 343.479 186.513 C 375.220 222.907, 381.836 273.388, 360.451 316 C 343.763 349.254, 312.652 372.501, 276 379.107 C 265.302 381.035, 243.466 380.756, 233 378.557 C 157.206 362.632, 117.239 280.525, 151.630 211.393 C 166.656 181.188, 194.052 159.356, 228.044 150.497 C 237.131 148.129, 240.831 147.728, 256.304 147.434 C 272.436 147.128, 274.435 146.894, 277.585 144.947 C 287.165 139.027, 287.322 124.809, 277.885 117.764 C 273.775 114.695, 258.488 113.333, 243.500 114.701 M 36.932 223.318 C 29.882 227.046, 28.291 231.354, 27.019 250.155 C 23.187 306.833, 41.194 363.371, 77.451 408.500 C 85.586 418.625, 102.217 435.296, 112 443.131 C 126.979 455.128, 153.761 470.740, 169.242 476.501 C 177.646 479.628, 184.723 477.363, 189.839 469.908 C 191.791 467.063, 192.110 465.548, 191.774 460.737 C 191.517 457.064, 190.643 453.980, 189.366 452.237 C 188.069 450.465, 181.388 446.503, 170.416 441 C 147.943 429.728, 135.962 421.525, 120.211 406.626 C 78.012 366.707, 55.107 307.140, 59.916 249.822 C 61.160 234.994, 61.154 234.881, 58.834 230.204 C 57.081 226.672, 55.388 224.939, 52.038 223.250 C 46.365 220.389, 42.437 220.407, 36.932 223.318 M 459.962 223.250 C 456.878 224.805, 454.775 226.824, 453.154 229.788 C 450.810 234.072, 450.809 234.092, 452.034 249.788 C 457.491 319.726, 424.764 387.372, 366.169 427.270 C 361.951 430.142, 350.861 436.319, 341.525 440.996 C 321.998 450.778, 320 452.681, 320 461.500 C 320 473.551, 331.072 480.850, 342.758 476.501 C 358.273 470.728, 384.881 455.194, 400 443.084 C 416.769 429.652, 435.337 409.140, 447.601 390.500 C 472.728 352.310, 485.134 310.824, 485.131 265 C 485.130 235.030, 483.171 227.198, 474.647 223.071 C 469.153 220.411, 465.503 220.456, 459.962 223.250" stroke="none" fill="#040404" fill-rule="evenodd"/></svg>