<svg width="1400" height="1399" xmlns="http://www.w3.org/2000/svg" xmlns:xlink="http://www.w3.org/1999/xlink" xml:space="preserve" overflow="hidden"><defs><clipPath id="clip0"><rect x="1500" y="574" width="1400" height="1399"/></clipPath></defs><g clip-path="url(#clip0)" transform="translate(-1500 -574)"><path d="M2141.59 576.486C2024.76 587.146 1908.4 628.139 1809.77 693.385 1746.16 735.464 1660.59 821.014 1618.51 884.604 1449.72 1139.65 1462.19 1467.55 1649.78 1706.78 1783.04 1876.73 1982.03 1973 2200.07 1973 2354.46 1973 2495.36 1927.09 2615.44 1837.66 2870.35 1647.8 2966.48 1316.92 2852.63 1021.23 2819.66 935.584 2759.61 842.474 2701.96 787.603 2679.04 765.773 2670.31 760.535 2652.37 757.845 2607.9 751.18 2565.21 787.847 2565.1 832.806 2565.03 857.204 2571.77 869.309 2609.34 912.384 2757.84 1082.61 2788.79 1318.74 2688.74 1518.05 2610.67 1673.6 2465.12 1782.33 2293.64 1813.23 2243.59 1822.25 2141.43 1820.95 2092.47 1810.66 1737.87 1736.17 1550.88 1352.12 1711.78 1028.76 1782.08 887.476 1910.25 785.358 2069.28 743.92 2111.79 732.844 2129.1 730.969 2201.49 729.594 2276.97 728.162 2286.32 727.068 2301.06 717.961 2345.88 690.27 2346.61 623.766 2302.46 590.813 2283.23 576.458 2211.71 570.088 2141.59 576.486" fill="#00F8F8" fill-rule="evenodd"/></g></svg>