<svg width="512" height="512" xmlns="http://www.w3.org/2000/svg" xmlns:xlink="http://www.w3.org/1999/xlink" xml:space="preserve" overflow="hidden"><defs><clipPath id="clip0"><rect x="384" y="104" width="512" height="512"/></clipPath></defs><g clip-path="url(#clip0)" transform="translate(-384 -104)"><path d="" stroke="#FFFF97" fill="none" fill-rule="evenodd"/><path d="M612 105.1C580.295 108.653 551.399 117.457 522.5 132.37 497.775 145.128 478.776 159.03 458.903 178.903 439.03 198.776 425.128 217.775 412.37 242.5 392.726 280.568 384 316.708 384 360 384 403.292 392.726 439.432 412.37 477.5 425.128 502.225 439.03 521.224 458.903 541.097 478.776 560.97 497.775 574.872 522.5 587.63 560.568 607.274 596.708 616 640 616 683.292 616 719.432 607.274 757.5 587.63 782.225 574.872 801.224 560.97 821.097 541.097 858.379 503.816 882.118 458.816 892.089 406.527 893.135 401.042 894.283 393.041 894.642 388.746 895 384.451 895.677 380.7 896.146 380.41 896.616 380.119 897 370.432 897 358.882 897 347.332 896.614 338.121 896.141 338.413 895.669 338.704 894.992 335.456 894.637 331.194 893.076 312.477 886.407 285.732 877.99 264.434 873.566 253.239 861.473 230.119 854.534 219.589 835.906 191.321 808.679 164.094 780.411 145.466 769.881 138.527 746.761 126.434 735.566 122.01 713.743 113.386 690.188 107.577 666.789 105.049 655.576 103.838 622.994 103.868 612 105.1M618.467 122.98C610.644 123.811 590.768 126.961 590.233 127.454 590.086 127.59 593.461 127.977 597.733 128.314 602.005 128.652 611.125 129.885 618 131.055 683.088 142.131 739.908 170.707 779.762 212.409 785.146 218.043 789.195 221.556 789.433 220.8 789.659 220.085 790.993 215.9 792.398 211.5 795.211 202.691 798.982 187.447 798.993 184.836 799.002 182.808 786.864 172.597 774 163.81 743.715 143.123 710.358 130.016 674 124.517 661.619 122.644 629.897 121.766 618.467 122.98M526.786 150.869C505.255 162.97 487.718 176.136 471.653 192.258 466.237 197.693 461.962 202.259 462.153 202.405 462.344 202.552 468.8 202.041 476.5 201.27 493.753 199.543 536.284 200.208 552.352 202.456 610.401 210.576 659.486 230.034 699.887 260.943 710.188 268.824 727.535 284.985 734.663 293.343L740.5 300.186 745.865 294.343C757.07 282.14 766.535 268.557 775.655 251.592L780.982 241.684 777.311 237.092C771.474 229.79 753.23 211.959 744.5 205.024 710.757 178.22 668.342 159.33 621.955 150.446 603.609 146.932 591.511 145.851 565 145.358L537.5 144.846 526.786 150.869M814.63 201C814.33 201.825 813.404 205.2 812.572 208.5 810.441 216.952 805.965 229.802 801.077 241.5 784.112 282.107 753.981 318.768 718.5 341.974 707.85 348.94 688.726 358.078 677 361.805 666.95 364.998 653.707 368 649.665 368 648.334 368 646.795 368.563 646.245 369.25 644.698 371.182 640.081 385.288 637.859 394.87 635.273 406.02 634.206 436.443 635.943 449.498 636.6 454.433 637.261 458.594 637.412 458.745 637.878 459.211 653.023 455.951 662.171 453.416 743.044 431.009 814.724 361.646 850.551 271.127L855.448 258.753 851.09 250.627C841.872 233.437 829.939 215.918 819.672 204.5 816.38 200.839 815.03 199.902 814.63 201M486 219.037C474.032 219.818 455.576 222.022 447.73 223.608 445.789 224 443.811 225.861 441.116 229.834 432.488 242.547 421.737 264.009 416.487 279 415.235 282.575 413.906 286.244 413.535 287.154 412.952 288.582 414.341 288.425 423.68 286.008 476.887 272.235 534.134 276.668 578.841 298.024 603.57 309.837 625.312 326.298 639.141 343.678L644.341 350.212 649.421 349.551C672.971 346.484 703.639 332.355 723.947 315.217L727.394 312.308 712.447 297.315C704.226 289.069 693.849 279.577 689.387 276.22 647.484 244.705 598.64 225.978 543 220.098 528.507 218.567 501.054 218.056 486 219.037M861.554 292.751C830.064 364.123 774.12 423.981 710 454.908 689.847 464.629 664.526 473.162 648.915 475.493 641.549 476.593 641.499 476.703 644.349 485.613 649.456 501.582 657.479 518.561 666.597 532.694L672.062 541.165 676.281 540.496C706.709 535.667 741.813 521.599 769.573 503.108 811.191 475.385 844.611 438.09 871.374 389.5L877.433 378.5 877.36 359C877.266 333.737 874.602 314.646 868.187 293.251L865.414 284.003 861.554 292.751M474.088 296.906 466.677 297.5 463.402 307C455.253 330.641 452.002 349.582 451.273 377.67 450.69 400.136 451.573 412.763 455.143 433 461.908 471.34 478.042 512.705 499.517 546.769 504.821 555.183 506.106 556.518 513.43 561.234 534.703 574.93 567.633 588.46 589.335 592.422L593.169 593.122 587.773 585.811C558.947 546.76 537.253 497.791 527.604 450 518.23 403.57 521.049 351.08 535.058 311.213 537.172 305.197 537.631 302.82 536.735 302.539 523.955 298.538 490.853 295.561 474.088 296.906M432.5 302.922C426.45 304.432 418.296 306.644 414.38 307.837 406.286 310.304 407.556 307.768 404.28 328 401.91 342.641 401.946 377.175 404.35 393 406.709 408.534 411.353 427.19 416.174 440.5 425.856 467.228 443.593 497.046 461.644 516.939 462.363 517.731 460.673 513.006 457.889 506.439 436.639 456.31 428.246 402.227 434.078 353 435.843 338.101 441.833 311.312 445.536 301.75 446.402 299.516 446.001 299.551 432.5 302.922M552.742 316.359C543.036 346.761 539.52 374.275 541.121 407.283 544.134 469.384 569.282 533.315 611.871 587.142L619.5 596.785 631 597.545C646.524 598.57 681.234 595.584 689.823 592.484 690.665 592.18 687.675 588.277 681.603 581.753 665.764 564.736 655.106 550.506 645.516 533.573 615.317 480.248 608.132 421.867 625.558 371.4L629.176 360.92 626.368 357.21C612.826 339.316 585.201 319.37 561.921 310.675L555.341 308.218 552.742 316.359M384.425 360C384.425 371.825 384.569 376.663 384.746 370.75 384.923 364.837 384.923 355.162 384.746 349.25 384.569 343.338 384.425 348.175 384.425 360M862.549 438.334C856.594 446.74 845.135 460.732 837.025 469.5 797.559 512.168 749.358 541.901 699.106 554.576 691.739 556.435 685.533 558.134 685.314 558.352 684.573 559.094 712.078 586 713.578 586 716.36 586 738.45 576.842 749 571.316 792.803 548.37 828.492 512.685 851.328 469 856.398 459.3 866.513 435.18 865.807 434.474 865.638 434.305 864.172 436.042 862.549 438.334" stroke="#FFFF97" fill="#FFFF97" fill-rule="evenodd"/></g></svg>