<svg width="2338" height="2339" xmlns="http://www.w3.org/2000/svg" xmlns:xlink="http://www.w3.org/1999/xlink" xml:space="preserve" overflow="hidden"><defs><clipPath id="clip0"><rect x="1031" y="68" width="2338" height="2339"/></clipPath></defs><g clip-path="url(#clip0)" transform="translate(-1031 -68)"><path d="M2633.7 1451.59C2679.96 1451.59 2718.08 1465.79 2748.05 1494.18 2778.02 1522.58 2793 1557.81 2793 1599.87 2793 1640.89 2778.02 1675.33 2748.05 1703.2 2718.08 1731.07 2679.96 1745 2633.7 1745 2586.38 1745 2547.73 1731.07 2517.77 1703.2 2487.8 1675.33 2472.81 1640.89 2472.81 1599.87 2472.81 1557.81 2487.8 1522.58 2517.77 1494.18 2547.73 1465.79 2586.38 1451.59 2633.7 1451.59ZM1645 625 2365.81 625 2365.81 841.112 1914.71 841.112 1914.71 1074.58 2252.25 1074.58 2252.25 1284.38 1914.71 1284.38 1914.71 1732.38 1645 1732.38Z" fill="#FFFFFF" fill-rule="evenodd"/><path d="M2633.64 1451.91C2586.32 1451.91 2547.67 1466.12 2517.7 1494.52 2487.73 1522.93 2472.74 1558.17 2472.74 1600.25 2472.74 1641.28 2487.73 1675.74 2517.7 1703.62 2547.67 1731.5 2586.32 1745.44 2633.64 1745.44 2679.91 1745.44 2718.03 1731.5 2748 1703.62 2777.97 1675.74 2792.96 1641.28 2792.96 1600.25 2792.96 1558.17 2777.97 1522.93 2748 1494.52 2718.03 1466.12 2679.91 1451.91 2633.64 1451.91ZM1644.85 624.992 1644.85 1732.81 1914.59 1732.81 1914.59 1284.64 2252.16 1284.64 2252.16 1074.75 1914.59 1074.75 1914.59 841.191 2365.73 841.191 2365.73 624.992ZM1616.55 68.0001 2783.45 68.0001C3106.84 68.0001 3369 330.273 3369 653.803L3369 1821.2C3369 2144.73 3106.84 2407 2783.45 2407L1616.55 2407C1293.16 2407 1031 2144.73 1031 1821.2L1031 653.803C1031 330.273 1293.16 68.0001 1616.55 68.0001Z" fill="#081C28" fill-rule="evenodd"/></g></svg>